<?xml version="1.0" standalone="no"?>
<!DOCTYPE svg PUBLIC "-//W3C//DTD SVG 20010904//EN" "http://www.w3.org/TR/2001/REC-SVG-20010904/DTD/svg10.dtd">
<!-- Created using Krita: http://krita.org -->
<svg xmlns="http://www.w3.org/2000/svg" 
    xmlns:xlink="http://www.w3.org/1999/xlink"
    xmlns:krita="http://krita.org/namespaces/svg/krita"
    xmlns:sodipodi="http://sodipodi.sourceforge.net/DTD/sodipodi-0.dtd"
    width="1687.5pt"
    height="1266pt"
    viewBox="0 0 1687.5 1266">
<defs/>
<path id="shape0" transform="translate(205.938732160525, 68.6413730931757)" fill="#ff0000" fill-rule="evenodd" stroke="#000000" stroke-opacity="0" stroke-width="0" stroke-linecap="square" stroke-linejoin="bevel" d="M637.811 1146.36C312.927 720.363 2.76073 472.307 0.0544882 277.564C-2.65176 82.8216 95.5324 -0.818547 276.143 0.0236451C396.549 0.585106 517.106 65.1978 637.811 193.862C756.739 63.1932 877.939 -1.41945 1001.41 0.0236451C1186.62 2.18828 1281.2 101.616 1278.93 283.438C1276.66 465.26 1047.1 716.236 637.811 1146.36Z"/><path id="shape01" transform="matrix(0.999999976989729 0 0 1 835.894463513534 65.9312524305199)" fill="#de0e0e" fill-rule="evenodd" stroke="#000000" stroke-opacity="0" stroke-width="0" stroke-linecap="square" stroke-linejoin="bevel" d="M7.85554 1152.07C-42.5284 358.29 157.81 -8.7371 369.781 0.157765C554.991 2.31073 649.571 101.202 647.301 282.044C645.031 462.885 424.645 740.675 7.85554 1152.07Z"/><path id="shape02" transform="matrix(0.999999990153344 0 0 1 843.75 178.40426802427)" fill="#cf0000" fill-rule="evenodd" stroke="#000000" stroke-opacity="0" stroke-width="0" stroke-linecap="square" stroke-linejoin="bevel" d="M0 1040.35C231.995 600.337 386.863 -8.7441 599.181 0.0951223C638.956 66.3311 636.011 111.056 641.25 175.988C638.976 355.698 417.472 631.526 0 1040.35Z"/><path id="shape01" transform="matrix(0.789568540105516 0 0 0.789708792530414 733.325025093795 258.725278031278)" fill="#000000" fill-rule="evenodd" stroke="#000000" stroke-width="30" stroke-linecap="square" stroke-linejoin="bevel" d="M276.75 233.835C276.75 76.343 261.218 9.00541e-15 145.891 0C30.5648 -9.00541e-15 -7.24131 87.7496 1.11138 228.132C1.11138 385.624 30.5648 519 145.891 519C261.218 519 276.75 391.327 276.75 233.835Z"/><path id="shape02" transform="matrix(0.539094471529636 0.576986889727692 -0.576884416751344 0.539190231812677 530.597995218097 356.255018822418)" fill="#000000" fill-rule="evenodd" stroke="#000000" stroke-opacity="0" stroke-width="0" stroke-linecap="square" stroke-linejoin="bevel" d="M514.141 63.0519C514.141 -4.52522 432.307 0.0656899 290.331 0.0656899C148.355 0.0656899 1.73871e-14 -4.52522 0 63.0519C-1.73871e-14 130.629 117.99 177.232 259.966 177.232C401.942 177.232 514.141 130.629 514.141 63.0519Z"/><path id="shape011" transform="matrix(0.609609975799628 -0.501880083423987 0.501790949430072 0.609718261873611 868.121083311764 646.43767830036)" fill="#000000" fill-rule="evenodd" stroke="#000000" stroke-opacity="0" stroke-width="0" stroke-linecap="square" stroke-linejoin="bevel" d="M514.141 63.0519C514.141 -4.52522 432.307 0.0656899 290.331 0.0656899C148.355 0.0656899 1.73871e-14 -4.52522 0 63.0519C-1.73871e-14 130.629 117.99 177.232 259.966 177.232C401.942 177.232 514.141 130.629 514.141 63.0519Z"/><path id="shape021" transform="matrix(1.93824316641424 0 0 1.93836493015617 669.933456997301 493.639340611281)" fill="#0e0606" fill-rule="evenodd" stroke="#050202" stroke-width="30" stroke-linecap="square" stroke-linejoin="bevel" d="M180 213.75C180 145.18 129.068 3.55271e-15 87.75 0C46.4322 -3.55271e-15 5.32907e-15 133.93 0 202.5C-5.32907e-15 271.07 46.4322 275.314 87.75 275.314C129.068 275.314 180 282.32 180 213.75Z"/><path id="shape03" transform="matrix(1.93824316641424 0 0 1.93836493015617 696.099749915203 559.96091940214)" fill="#ffffff" fill-rule="evenodd" stroke="#ffffff" stroke-width="30" stroke-linecap="square" stroke-linejoin="bevel" d="M148.5 176.344C148.5 119.774 106.481 2.93099e-15 72.3938 0C38.3066 -2.93099e-15 4.39648e-15 110.492 0 167.062C-4.39648e-15 223.633 38.3066 227.134 72.3938 227.134C106.481 227.134 148.5 232.914 148.5 176.344Z"/><path id="shape031" transform="matrix(1.93824307408628 0 0 1.93836502101412 812.789157712736 566.709046934135)" fill="#eae8e8" fill-rule="evenodd" stroke="#e7e7e7" stroke-width="30" stroke-linecap="square" stroke-linejoin="bevel" d="M90.2237 170.074C90.2237 113.504 41.2835 -6.82041 15.9737 0.302913C16.2073 20.1448 -1.54483 66.1988 0.108765 129.383C0.108765 185.954 11.2289 223.524 45.3161 223.524C79.4033 223.524 90.2237 226.644 90.2237 170.074Z"/><path id="shape04" transform="matrix(1.93824316641424 0 0 1.93836493015617 616.705004394277 889.257252679273)" fill="#ffd200" fill-rule="evenodd" stroke="#ffd200" stroke-width="30" stroke-linecap="square" stroke-linejoin="bevel" d="M37.2584 74.9012C15.8857 73.7201 0.161271 41.8266 0.00318297 32.2709C-0.154905 22.7151 5.58062 18.6111 16.1311 18.6524C23.1648 18.6799 29.7323 0.171718 36.7285 0.00115656C43.7248 -0.169405 51.2856 18.5816 58.4984 18.6524C69.3174 18.7586 74.8427 23.6374 74.7099 32.5591C74.5771 41.4808 58.6311 76.0824 37.2584 74.9012Z"/><path id="shape05" transform="matrix(1.93824316641424 0 0 1.93836493015617 903.491516455526 889.257252679273)" fill="#af9100" fill-rule="evenodd" stroke="#ad8e00" stroke-width="30" stroke-linecap="square" stroke-linejoin="bevel" d="M37.2584 74.9012C15.8857 73.7201 0.161271 41.8266 0.00318297 32.2709C-0.154905 22.7151 5.58062 18.6111 16.1311 18.6524C23.1648 18.6799 29.7323 0.171718 36.7285 0.00115656C43.7248 -0.169405 51.2856 18.5816 58.4984 18.6524C69.3174 18.7586 74.8427 23.6374 74.7099 32.5591C74.5771 41.4808 58.6311 76.0824 37.2584 74.9012Z"/><path id="shape06" transform="matrix(0.789568540105516 0 0 0.789708792530414 755.531618994969 354.082606128977)" fill="#ffffff" fill-rule="evenodd" stroke="#fefcfc" stroke-width="30" stroke-linecap="square" stroke-linejoin="bevel" d="M49.5 54C49.5 10.5076 39.2756 0 22.5 0C5.72436 0 1.77636e-15 15.0076 0 58.5C-1.77636e-15 101.992 9.09937 135 25.875 135C42.6507 135 49.5 97.4924 49.5 54Z"/><path id="shape07" transform="matrix(0.789568540105516 0 0 0.789708792530414 855.017251894896 349.721258844554)" fill="#ffffff" fill-rule="evenodd" stroke="#fefcfc" stroke-width="30" stroke-linecap="square" stroke-linejoin="bevel" d="M54 58.9091C54 11.4628 42.8462 0 24.5455 0C6.24475 0 1.93784e-15 16.3719 0 63.8182C-1.93784e-15 111.264 9.92658 147.273 28.2273 147.273C46.528 147.273 54 106.355 54 58.9091Z"/><path id="shape08" transform="matrix(0.789568540105516 0 0 0.789708792530414 862.912937295951 384.288966485823)" fill="#000000" fill-rule="evenodd" stroke="#000000" stroke-width="30" stroke-linecap="square" stroke-linejoin="bevel" d="M24.75 41.4C24.75 8.0558 19.6378 0 11.25 0C2.86218 0 8.88178e-16 11.5058 0 44.85C-8.88178e-16 78.1942 4.54968 103.5 12.9375 103.5C21.3253 103.5 24.75 74.7442 24.75 41.4Z"/><path id="shape09" transform="matrix(0.789568540105516 0 0 0.789708792530414 764.809049172278 386.765793287507)" fill="#000000" fill-rule="evenodd" stroke="#000000" stroke-width="30" stroke-linecap="square" stroke-linejoin="bevel" d="M24 40.1454C24 7.81169 19.0427 0 10.9091 0C2.77544 0 8.61264e-16 11.1571 0 43.4909C-8.61264e-16 75.8247 4.41181 100.364 12.5455 100.364C20.6791 100.364 24 72.4792 24 40.1454Z"/><path id="shape010" transform="matrix(0.789568540105516 0 0 0.789708792530414 738.950663412501 426.933239930782)" fill="#a30000" fill-rule="evenodd" stroke="#c2a000" stroke-width="30" stroke-linecap="square" stroke-linejoin="bevel" d="M0 70.2295C43.931 127.32 37.3502 119.238 80.4319 204C193.535 143.363 240.332 96.265 232.521 62.7049C220.806 12.3647 155.023 38.3823 117.161 0C93.221 26.6203 1.52097 24.1121 0 70.2295Z"/><path id="shape011" transform="matrix(0.789568540105516 0 0 0.789708792530414 730.197504711809 421.602705750162)" fill="#ffd200" fill-rule="evenodd" stroke="#ffd200" stroke-width="30" stroke-linecap="square" stroke-linejoin="bevel" d="M0.586024 42.75C-3.16398 63 9.88359 81.9755 74.836 128.25C144.289 120.524 254.84 75.5338 245.836 49.5C236.832 23.4662 158.985 29.7745 115.336 0C73.9373 30.9755 4.33602 22.5 0.586024 42.75Z"/><ellipse id="shape012" transform="matrix(0.789568540105516 0 0 0.789708792530414 787.50916322635 429.499804770535)" rx="9" ry="16.5" cx="9" cy="16.5" fill="#000000" fill-rule="evenodd" stroke="#000000" stroke-width="1.545" stroke-linecap="square" stroke-linejoin="bevel"/><ellipse id="shape013" transform="matrix(0.789568540105516 0 0 0.789708792530414 826.987590231626 429.499804770535)" rx="9" ry="16.5" cx="9" cy="16.5" fill="#000000" fill-rule="evenodd" stroke="#000000" stroke-width="1.545" stroke-linecap="square" stroke-linejoin="bevel"/>
</svg>
